<?xml version="1.0" encoding="utf-8"?>
<!-- Generator: Adobe Illustrator 25.4.1, SVG Export Plug-In . SVG Version: 6.00 Build 0)  -->
<svg version="1.1" id="Layer_1" xmlns="http://www.w3.org/2000/svg" xmlns:xlink="http://www.w3.org/1999/xlink" x="0px" y="0px"
	 viewBox="0 0 2500 2500" style="enable-background:new 0 0 2500 2500;" xml:space="preserve">
<style type="text/css">
	.st0{fill:url(#SVGID_1_);}
	.st1{fill:url(#SVGID_00000080174011840907042540000000581377784587797894_);}
	.st2{fill:url(#SVGID_00000042011795818382395530000011083207450764713613_);}
	.st3{fill:url(#SVGID_00000022528991227891432250000005354806659353269914_);}
	.st4{fill:url(#SVGID_00000059269326725680639040000013919321871364886431_);}
</style>
<circle cx="1250" cy="1250" r="1198"/>
<g>
	<linearGradient id="SVGID_1_" gradientUnits="userSpaceOnUse" x1="1701.2203" y1="945.1686" x2="1754.5327" y2="925.7645">
		<stop  offset="0" style="stop-color:#29D8BE"/>
		<stop  offset="0.3325" style="stop-color:#25DCBD"/>
		<stop  offset="0.6674" style="stop-color:#19E8B9"/>
		<stop  offset="1" style="stop-color:#06FCB2"/>
	</linearGradient>
	<path class="st0" d="M1728.1,907c-15.8,0-28.2,11.8-28.2,28.5c0,16.5,11.3,28.2,28.2,28.2c16.2,0,28-11.8,28-28.2
		C1756.1,918.8,1743.6,907,1728.1,907z"/>
	
		<linearGradient id="SVGID_00000142858657990242025860000007911578355189354431_" gradientUnits="userSpaceOnUse" x1="1852.0605" y1="945.1686" x2="1905.3728" y2="925.7645">
		<stop  offset="0" style="stop-color:#29D8BE"/>
		<stop  offset="0.3325" style="stop-color:#25DCBD"/>
		<stop  offset="0.6674" style="stop-color:#19E8B9"/>
		<stop  offset="1" style="stop-color:#06FCB2"/>
	</linearGradient>
	<path style="fill:url(#SVGID_00000142858657990242025860000007911578355189354431_);" d="M1878.9,907c-15.8,0-28.2,11.8-28.2,28.5
		c0,16.5,11.3,28.2,28.2,28.2c16.2,0,28-11.8,28-28.2C1906.9,918.8,1894.4,907,1878.9,907z"/>
	
		<linearGradient id="SVGID_00000140698305555603093650000011183150667434887560_" gradientUnits="userSpaceOnUse" x1="1322.1995" y1="1081.3706" x2="2125.3164" y2="789.0599">
		<stop  offset="0.1117" style="stop-color:#3EC2C6"/>
		<stop  offset="0.7998" style="stop-color:#13EEB7"/>
		<stop  offset="1" style="stop-color:#06FCB2"/>
	</linearGradient>
	<path style="fill:url(#SVGID_00000140698305555603093650000011183150667434887560_);" d="M1754.4,614.7
		c-223.2,0-404.1,137.9-404.1,307.9c0,74.2,34.5,142.3,91.9,195.5l-71.6,88.5c-4.8,5.8,2.2,2.5,2.2,2.5l114.6-54.5
		c27.5,15.2,85.2,70.7,267,75.8c223.1,6.3,404.1-137.9,404.1-307.9S1977.6,614.7,1754.4,614.7z M1567.3,995.7l-27.8-62.4l-27.8,62.4
		h-28.2L1418.8,875h48l29.4,65.2l29-65.2h28.7l28.9,65.2l29.4-65.2h48l-64.7,120.7H1567.3z M1728.3,999.3
		c-43.5,0-72.7-26.6-72.7-63.8c0-37.7,32-64,72.7-64c40,0,72,26.4,72,64C1800.3,972.7,1769.9,999.3,1728.3,999.3z M1879.1,999.3
		c-43.5,0-72.7-26.6-72.7-63.8c0-37.7,32-64,72.7-64c40,0,72,26.4,72,64C1951.1,972.7,1920.8,999.3,1879.1,999.3z M2046,875v31.8
		h-27.8v89h-41.7v-89h-17.4V875h17.4v-25.7c0.2-35.3,17.2-59.5,47.3-59.5c21.2,0,34.4,10.8,34.4,10.8l-14.6,29.4
		c0,0-5.7-3.3-12.5-3.3c-10.6,0-12.9,7.1-12.9,23.8V875H2046z"/>
</g>
<g>
	
		<linearGradient id="SVGID_00000009570651298643990050000006066419300222941315_" gradientUnits="userSpaceOnUse" x1="519.658" y1="2200.7563" x2="1486.2329" y2="1234.1813">
		<stop  offset="0.2682" style="stop-color:#DC1FFF"/>
		<stop  offset="0.7602" style="stop-color:#728DD9"/>
		<stop  offset="1" style="stop-color:#43BEC8"/>
	</linearGradient>
	<path style="fill:url(#SVGID_00000009570651298643990050000006066419300222941315_);" d="M1227.9,1515.1
		c0,0,140.3-178.1,140.9-179.1c8.4-8.8,2.6-20.3,2.6-20.3s-22.4-63.1-22.6-63.3c-2.2-7.1-4.8-2.4-4.8-2.4l-40.5,44.5
		c-6.8,1.5-7.8-7.8-7.4-8.9c52.7-62,44.6-151.7,44.6-151.7s-103.7-144.9-104.5-146c-10.7-20.1-31.3-29.8-31.8-30.3
		c-18.1-21.9-47.1-5.5-47.1-5.5l-84.3,65.2c0,0-118.5,92.5-231.6,178c-606.8-16.8-557.1,669.6-557.1,669.6
		c-9.5,32.1,112.4,202.3,112.4,204.4c43.8,85.4,315.4,232.2,354.9,251.9c98.6,54.8,484.7,97.5,484.7,97.5v-31.8
		c0,0-36.7-115-40-121.6c-5.5-93.1-93.1-258.5-93.5-258.8c-12.4-16.8-7.7-40.3-7.7-40.3s31.4-225.1,31-228c0-5.5,3.7-6.6,3.7-6.6
		s86.2-98.2,89.1-102.6c9.5-11,7.5-23.5,7.5-23.5s-2.7-77-2.6-78.1C1224.1,1519.9,1227.9,1515.1,1227.9,1515.1z M756.2,1545.3
		c0,0-64.3,146-93.3,333.3c-6.9,44.6-19.8,104.1-19.8,104.1s0.7,4.7-6.9,0c-0.4,0-78.5-57-93.8-159.2c0-1.5-8-79.6,3.3-131.4
		c0.4-1.1,18.8-99.3,32.1-112.4c1.1,0.1,2,0.1,2.4,0.5s1.4,1.7,1.4,1.7s-33.2,168.7-12.4,253.5c11.1,50.8,33.4,83.8,33.4,83.8
		l9.6,10.5c0,0,11.7,11,14.5,10.3c0,0,52.6-316.5,130.3-400.9C757.9,1540.8,756.2,1545.3,756.2,1545.3z"/>
	
		<linearGradient id="SVGID_00000049903591383131059390000004162135798092514489_" gradientUnits="userSpaceOnUse" x1="371.9107" y1="2128.0906" x2="2128.0906" y2="371.9107">
		<stop  offset="0.2067" style="stop-color:#DC1FFF"/>
		<stop  offset="0.2614" style="stop-color:#C537F7"/>
		<stop  offset="0.408" style="stop-color:#8D70E3"/>
		<stop  offset="0.5499" style="stop-color:#5FA1D2"/>
		<stop  offset="0.6834" style="stop-color:#3AC6C5"/>
		<stop  offset="0.8067" style="stop-color:#20E1BC"/>
		<stop  offset="0.916" style="stop-color:#11F1B6"/>
		<stop  offset="1" style="stop-color:#0BF7B4"/>
	</linearGradient>
	<path style="fill:url(#SVGID_00000049903591383131059390000004162135798092514489_);" d="M2394.2,766.6
		c-62.6-147.9-152.1-280.7-266.1-394.7c-114-114-246.8-203.5-394.7-266.1C1580.2,41,1417.6,8.2,1250,8.2S919.8,41,766.6,105.8
		c-147.9,62.5-280.7,152.1-394.7,266.1c-114,114-203.5,246.8-266.1,394.7C41,919.8,8.2,1082.4,8.2,1250
		c0,167.6,32.8,330.2,97.6,483.4c62.6,147.9,152.1,280.7,266.1,394.7c114,114,246.8,203.5,394.7,266.1
		c153.2,64.8,315.8,97.6,483.4,97.6s330.2-32.8,483.4-97.6c147.9-62.6,280.7-152.1,394.7-266.1c114-114,203.5-246.8,266.1-394.7
		c64.8-153.2,97.6-315.8,97.6-483.4C2491.8,1082.4,2459,919.8,2394.2,766.6z M1250,2399.5c-634.9,0-1149.5-514.7-1149.5-1149.5
		S615.1,100.5,1250,100.5S2399.5,615.1,2399.5,1250S1884.9,2399.5,1250,2399.5z"/>
</g>
</svg>
