<svg width="137" height="44" viewBox="0 0 137 44" fill="none" xmlns="http://www.w3.org/2000/svg">
<path d="M9.23942 43.3579H18.1883L23.4383 24.1477H23.8161L29.0661 43.3579H38.0349L46.3275 12.8125H37.7763L33.1229 33.2159H32.8644L27.8531 12.8125H19.4411L14.5093 33.3352H14.2309L9.49794 12.8125H0.926918L9.23942 43.3579ZM63.8822 43.9545C73.1492 43.9545 78.9163 37.6108 78.9163 28.2045C78.9163 18.7386 73.1492 12.4147 63.8822 12.4147C54.6151 12.4147 48.8481 18.7386 48.8481 28.2045C48.8481 37.6108 54.6151 43.9545 63.8822 43.9545ZM63.9219 37.392C59.6464 37.392 57.4589 33.4744 57.4589 28.1448C57.4589 22.8153 59.6464 18.8778 63.9219 18.8778C68.118 18.8778 70.3055 22.8153 70.3055 28.1448C70.3055 33.4744 68.118 37.392 63.9219 37.392ZM98.2259 43.9545C107.493 43.9545 113.26 37.6108 113.26 28.2045C113.26 18.7386 107.493 12.4147 98.2259 12.4147C88.9589 12.4147 83.1918 18.7386 83.1918 28.2045C83.1918 37.6108 88.9589 43.9545 98.2259 43.9545ZM98.2657 37.392C93.9901 37.392 91.8026 33.4744 91.8026 28.1448C91.8026 22.8153 93.9901 18.8778 98.2657 18.8778C102.462 18.8778 104.649 22.8153 104.649 28.1448C104.649 33.4744 102.462 37.392 98.2657 37.392ZM135.195 12.8125H129.129V10.7642C129.129 8.69598 129.965 7.48291 132.45 7.48291C133.465 7.48291 134.499 7.70166 135.175 7.92041L136.666 1.55677C135.612 1.23859 133.286 0.721544 130.68 0.721544C124.933 0.721544 120.658 3.96302 120.658 10.6051V12.8125H116.342V19.1761H120.658V43.3579H129.129V19.1761H135.195V12.8125Z" fill="url(#paint0_linear_429_663)"/>
<defs>
<linearGradient id="paint0_linear_429_663" x1="120.829" y1="-13.8387" x2="41.6019" y2="49.3223" gradientUnits="userSpaceOnUse">
<stop stop-color="#DC1FFF"/>
<stop offset="1" stop-color="#00FFA3"/>
</linearGradient>
</defs>
</svg>
