<svg width="1001" height="257" viewBox="0 0 1001 257" fill="none" xmlns="http://www.w3.org/2000/svg">
<path d="M114 252L147.984 175.68L181.968 252H216.528L295.728 104.256H236.976L200.976 184.032L165.552 104.256H130.416L94.992 184.032L58.992 104.256H0.24L79.44 252H114ZM295.843 178.272C295.843 223.776 331.555 256.32 384.835 256.32C435.811 256.32 472.963 223.776 472.963 178.272C472.963 132.192 433.795 99.936 384.835 99.936C335.011 99.936 295.843 132.192 295.843 178.272ZM349.987 178.272C349.987 157.824 365.251 143.424 384.547 143.424C403.555 143.424 418.819 157.824 418.819 178.272C418.819 198.432 404.419 212.832 384.547 212.832C363.811 212.832 349.987 198.432 349.987 178.272ZM486.249 178.272C486.249 223.776 521.961 256.32 575.241 256.32C626.217 256.32 663.369 223.776 663.369 178.272C663.369 132.192 624.201 99.936 575.241 99.936C525.417 99.936 486.249 132.192 486.249 178.272ZM540.393 178.272C540.393 157.824 555.657 143.424 574.953 143.424C593.961 143.424 609.225 157.824 609.225 178.272C609.225 198.432 594.825 212.832 574.953 212.832C554.217 212.832 540.393 198.432 540.393 178.272ZM694.545 104.256H673.233V143.136H694.545V252H745.521V143.136H779.505V104.256H745.521V74.304C745.521 53.856 748.401 45.216 761.361 45.216C769.713 45.216 776.625 49.248 776.625 49.248L794.481 13.248C794.481 13.248 778.353 -1.71661e-05 752.433 -1.71661e-05C715.569 -1.71661e-05 694.833 29.664 694.545 72.864V104.256ZM860.001 218.592C860.145 217.728 860.145 216.144 860.145 215.136C860.145 189.216 843.009 175.968 820.545 175.968C798.225 175.968 779.937 193.536 779.937 215.136C779.937 236.592 798.225 254.16 820.545 254.16C836.961 254.16 850.497 248.832 858.849 234.864L840.417 225.648C834.225 232.272 830.625 233.856 822.417 233.856C815.937 233.856 806.433 229.968 806.433 218.592H860.001ZM807.153 204.48C807.585 197.712 812.481 192.528 821.265 192.528C828.753 192.528 834.081 196.704 835.233 204.48H807.153ZM871.749 252H897.237V213.12C897.237 211.248 899.109 198.144 912.357 198.144C920.853 198.144 925.605 202.176 925.605 202.176L936.261 180.576C936.261 180.576 929.637 175.968 920.133 175.968C905.589 175.968 897.525 188.784 897.525 188.784H897.237V178.128H871.749V252ZM974.455 175.968C955.015 175.968 942.199 184.608 942.199 199.728C942.199 210.816 949.687 216 957.175 219.888C965.527 224.208 973.591 224.64 973.591 229.968C973.591 234.864 969.271 235.296 965.671 235.296C957.463 235.296 947.383 226.8 947.383 226.8L937.015 244.224C937.015 244.224 947.671 254.16 965.527 254.16C980.647 254.16 1000.52 250.704 1000.52 228.96C1000.52 213.84 987.847 208.368 978.055 205.344C971.719 203.328 966.535 202.176 966.535 198.288C966.535 194.832 968.839 193.824 974.455 193.824C982.231 193.824 990.871 198.432 990.871 198.432L999.223 181.728C999.223 181.728 988.711 175.968 974.455 175.968Z" fill="black"/>
</svg>
